<svg xmlns="http://www.w3.org/2000/svg" version="1.1" xmlns:xlink="http://www.w3.org/1999/xlink" xmlns:svgjs="http://svgjs.com/svgjs" width="512" height="512" x="0" y="0" viewBox="0 0 64 64" style="enable-background:new 0 0 512 512" xml:space="preserve" class=""><g><circle cx="26" cy="26" r="24" fill="#225980" data-original="#225980" class=""></circle><circle cx="26" cy="26" r="20.939" fill="#419bd7" data-original="#419bd7"></circle><circle cx="26" cy="26" r="20" fill="#26669e" data-original="#26669e"></circle><path fill="#18435e" d="M12.061 37.939a25.893 25.893 0 0 0 1.452 8.56 24 24 0 0 0 32.919-33.09 25.938 25.938 0 0 0-34.371 24.53z" data-original="#18435e"></path><path fill="#7fcdf2" d="M12 25h7v2h-7zM22 23h-5a1 1 0 0 1-1-1v-4h2v3h4zM25 13h2v7h-2z" data-original="#7fcdf2"></path><circle cx="12" cy="25.939" r="2" fill="#f9d161" data-original="#f9d161" class=""></circle><circle cx="26" cy="11.939" r="2" fill="#f9d161" data-original="#f9d161" class=""></circle><circle cx="17" cy="16.939" r="2" fill="#f9d161" data-original="#f9d161" class=""></circle><path fill="#4aaee3" d="M19 25h-3.478q-.562.975-1.042 2H19zM22 23v-2h-3.635q-.816.944-1.539 1.965A.925.925 0 0 0 17 23zM27 20v-5.553q-1.026.482-2 1.049V20z" data-original="#4aaee3"></path><circle cx="38" cy="38" r="24" fill="#fbe47f" data-original="#fbe47f" class=""></circle><circle cx="38" cy="38" r="20.939" fill="#bc9834" data-original="#bc9834" class=""></circle><circle cx="38" cy="38" r="20" fill="#f5b94c" data-original="#f5b94c" class=""></circle><g fill="#ccc"><path d="m47 31-4 4-6-6-6 6-4-4 10-10zM47 45l-4-4-6 6-6-6-4 4 10 10z" fill="#cccccc" data-original="#cccccc"></path><path d="m32.993 38 4-4 4 4-4 4zM19.994 37.999l4-4 4 4-4 4zM45.992 38.001l4-4 4 4-4 4z" fill="#cccccc" data-original="#cccccc"></path></g><path fill="#ffffff" d="m48 31-4 4-6-6-6 6-4-4 10-10zM48 45l-4-4-6 6-6-6-4 4 10 10z" data-original="#ffffff" class=""></path><path fill="#ffffff" d="m33.993 38 4-4 4 4-4 4zM20.994 37.999l4-4 4 4-4 4zM46.991 38.001l4-4 4 4-4 4z" data-original="#ffffff" class=""></path></g></svg>